<?xml version="1.0" encoding="UTF-8"?>
<svg version="1.1" xmlns="http://www.w3.org/2000/svg" width="2048" height="2048">
<path d="M0 0 C2.54703071 1.21956175 4.95918615 2.60242044 7.375 4.0625 C8.01566406 4.43955078 8.65632813 4.81660156 9.31640625 5.20507812 C10.88254066 6.12839617 12.44198034 7.06305393 14 8 C14 8.66 14 9.32 14 10 C14.71881348 10.27223389 15.43762695 10.54446777 16.17822266 10.82495117 C18.96765996 11.98653291 21.51753332 13.31717227 24.1484375 14.80078125 C25.14206299 15.35918701 26.13568848 15.91759277 27.15942383 16.49291992 C28.22056396 17.09338135 29.2817041 17.69384277 30.375 18.3125 C31.48190186 18.93552002 32.58880371 19.55854004 33.72924805 20.20043945 C39.17696212 23.26872786 44.6178157 26.34912166 50.05859375 29.4296875 C51.01515869 29.97125488 51.97172363 30.51282227 52.95727539 31.07080078 C54.86687023 32.15206089 56.77621117 33.23376952 58.68530273 34.31591797 C64.74129105 37.7426957 70.82863644 41.10611434 76.9375 44.4375 C87.36277927 50.13412961 97.59747162 56.14605739 107.84521484 62.15429688 C121.77682858 70.30497014 135.7704392 78.33993937 149.875 86.1875 C158.12471412 90.78039425 166.27270025 95.50348783 174.34667969 100.39794922 C184.35454827 106.45324734 194.51042031 112.25148522 204.65332031 118.07666016 C210.10638623 121.21054207 215.55291228 124.35574277 221 127.5 C223.16663414 128.75005639 225.33330083 130.00005634 227.5 131.25 C257.83333333 148.75 288.16666667 166.25 318.5 183.75 C319.57266113 184.36883057 320.64532227 184.98766113 321.75048828 185.62524414 C323.91557071 186.87435518 326.08060982 188.12354129 328.24560547 189.37280273 C333.68615706 192.51202309 339.12747216 195.64990563 344.5703125 198.78515625 C355.02206199 204.80747329 365.46299548 210.84669337 375.875 216.9375 C384.55262241 222.01275123 393.26605568 227.02258767 402 232 C411.72115617 237.5400173 421.40894658 243.13374809 431.06689453 248.78344727 C441.59084625 254.93766742 452.15380137 261.02369996 462.71777344 267.10888672 C468.14659942 270.23680148 473.57319281 273.36858448 479 276.5 C481.16665583 277.75001879 483.3333225 279.00001878 485.5 280.25 C507.16666667 292.75 528.83333333 305.25 550.5 317.75 C551.57338623 318.3692334 552.64677246 318.9884668 553.75268555 319.62646484 C555.91049803 320.87141282 558.06821353 322.1165289 560.22583008 323.36181641 C565.77716592 326.56552651 571.33036541 329.7659363 576.88671875 332.9609375 C579.15375629 334.26543306 581.42068509 335.57011762 583.6875 336.875 C584.77458252 337.50051758 585.86166504 338.12603516 586.98168945 338.77050781 C594.03293849 342.83759754 601.02466633 346.98650039 607.94921875 351.265625 C610.97861433 353.06792933 610.97861433 353.06792933 614.29541016 354.3840332 C617.80283362 355.86752637 621.04133221 357.65282745 624.32421875 359.58984375 C624.90394943 359.93048355 625.48368011 360.27112335 626.08097839 360.62208557 C627.95226534 361.72313345 629.81994073 362.83014327 631.6875 363.9375 C632.99023553 364.70600318 634.2931342 365.47422988 635.59619141 366.2421875 C645.39973521 372.02626007 655.17130834 377.86361279 664.91699219 383.74462891 C666.79925625 384.8790173 668.68390363 386.00924061 670.5703125 387.13671875 C672.26800781 388.15185547 672.26800781 388.15185547 674 389.1875 C674.83966309 389.68830078 674.83966309 389.68830078 675.69628906 390.19921875 C679.51572347 392.48557179 683.31323989 394.80559364 687.10113525 397.14387512 C689.63405555 398.70637295 692.17048427 400.26313116 694.70703125 401.81973267 C695.97792475 402.60180698 697.24715719 403.3865875 698.51464844 404.17416382 C700.31032916 405.28963107 702.1115451 406.39562471 703.9140625 407.5 C704.9654541 408.1496875 706.0168457 408.799375 707.10009766 409.46875 C709.82464132 410.90740448 711.96657246 411.59749959 715 412 C715 412.99 715 413.98 715 415 C715.721875 414.896875 716.44375 414.79375 717.1875 414.6875 C720 415 720 415 722.13351136 417.31912029 C724.82672471 419.83794451 725.81470047 420.44422377 729.13042897 421.49119866 C734.37813791 423.32127999 738.64088588 425.44133967 742 430 C745.22743044 439.77747577 744.33970256 450.9390802 744.20255251 461.12608532 C744.16209189 465.5219157 744.22021969 469.91663576 744.26568669 474.31226456 C744.33170033 482.0150069 744.33443957 489.71576105 744.29565811 497.41865921 C744.23814635 508.87269145 744.27767236 520.32496062 744.33619829 531.77891367 C744.43737256 552.23499408 744.440704 572.69021923 744.40198139 593.14646199 C744.3681985 611.04896996 744.36471869 628.95115138 744.39168358 646.85367203 C744.39518988 649.25411685 744.39869607 651.65456166 744.40220216 654.05500648 C744.40754118 657.67216163 744.4129205 661.28931671 744.41839501 664.90647166 C744.48605221 710.11972531 744.45206014 755.3324172 744.37445538 800.5456271 C744.30618485 840.71979222 744.3346422 880.89282594 744.44262695 921.06689453 C744.56365413 966.19388416 744.61922059 1011.32021498 744.5731656 1056.44736588 C744.56845161 1061.25780926 744.56392573 1066.06825279 744.55949974 1070.87869644 C744.55778667 1072.65539999 744.55778667 1072.65539999 744.55603899 1074.46799654 C744.54002452 1092.35848069 744.57462453 1110.24841197 744.63421059 1128.13879013 C744.70177117 1148.48195501 744.69870539 1168.82372094 744.6017519 1189.16679631 C744.54951662 1200.55430228 744.5524331 1211.93864282 744.63462536 1223.32598946 C744.6839773 1230.93172359 744.66066366 1238.53499325 744.5781471 1246.14043415 C744.53313699 1250.47610783 744.519559 1254.80554411 744.59420291 1259.14094983 C744.99813693 1284.29223039 744.99813693 1284.29223039 739.95009623 1290.53509799 C735.15888811 1294.57092516 729.94276432 1297.1197836 724.02300621 1299.09659899 C721.65612822 1299.93778715 721.65612822 1299.93778715 720 1303 C717.375 1303.1875 717.375 1303.1875 715 1303 C714.67 1304.32 714.34 1305.64 714 1307 C713.30503418 1307.0928125 712.61006836 1307.185625 711.89404297 1307.28125 C708.38082712 1308.15377467 705.80785291 1309.65036655 702.6953125 1311.5 C702.09427704 1311.85457275 701.49324158 1312.20914551 700.87399292 1312.57446289 C698.95359317 1313.70960123 697.03930097 1314.85461315 695.125 1316 C693.87799004 1316.73893284 692.63059694 1317.47721948 691.3828125 1318.21484375 C684.46155824 1322.31280994 677.56820058 1326.45742851 670.67344666 1330.59976196 C666.18023583 1333.29727244 661.67699167 1335.97745058 657.16796875 1338.6484375 C656.51738998 1339.03384705 655.86681122 1339.41925659 655.19651794 1339.81634521 C652.49312329 1341.41756441 649.78956093 1343.01850034 647.08596802 1344.61938477 C638.13330127 1349.92295273 629.19391628 1355.24270873 620.3894043 1360.79052734 C617.03466975 1362.87820612 613.76473116 1364.53842386 610.09741211 1366.03857422 C604.89927504 1368.42133103 600.01008345 1371.45414921 595.0625 1374.3125 C593.80954871 1375.03271633 592.55645405 1375.7526833 591.30322266 1376.47241211 C582.4929044 1381.53790108 573.70962998 1386.64987424 564.93725586 1391.78076172 C554.41228555 1397.9364988 543.84762236 1404.02287985 533.28222656 1410.10888672 C527.85340058 1413.23680148 522.42680719 1416.36858448 517 1419.5 C514.83334417 1420.75001879 512.6666775 1422.00001878 510.5 1423.25 C509.4275 1423.86875 508.355 1424.4875 507.25 1425.125 C289.49999998 1550.75000001 289.49999998 1550.75000001 286.24951172 1552.62524414 C284.08442929 1553.87435518 281.91939018 1555.12354129 279.75439453 1556.37280273 C274.31384294 1559.51202309 268.87252784 1562.64990563 263.4296875 1565.78515625 C252.97793881 1571.80747282 242.53694017 1577.84658414 232.125 1583.9375 C223.40762479 1589.03710661 214.65090978 1594.06464782 205.875 1599.0625 C195.66343787 1604.87891613 185.51678021 1610.79611915 175.41015625 1616.79296875 C160.49877868 1625.64073084 145.50229043 1634.31612322 130.35400391 1642.75195312 C123.21149907 1646.73815741 116.1212637 1650.8049316 109.0625 1654.9375 C108.08659912 1655.50879639 107.11069824 1656.08009277 106.10522461 1656.66870117 C104.10653421 1657.83922936 102.10791854 1659.00988515 100.109375 1660.18066406 C72.64747881 1676.24897832 72.64747881 1676.24897832 60.19750977 1682.72216797 C49.2505674 1688.43838442 38.57141062 1694.67967604 27.95703125 1700.98828125 C26.77947266 1701.68739624 26.77947266 1701.68739624 25.578125 1702.40063477 C24.10023583 1703.2808388 22.62484314 1704.16525211 21.15234375 1705.05444336 C16.21809451 1708 16.21809451 1708 14 1708 C14 1708.66 14 1709.32 14 1710 C11.46917897 1711.54193728 8.92794722 1713.05800484 6.375 1714.5625 C5.66214844 1715.00013672 4.94929688 1715.43777344 4.21484375 1715.88867188 C0.94050979 1717.79619671 -1.22361681 1718.99207772 -5.0625 1719.03125 C-8.78296632 1717.72512884 -12.00844163 1715.97219447 -15.375 1713.9375 C-16.01566406 1713.56044922 -16.65632812 1713.18339844 -17.31640625 1712.79492188 C-18.88254066 1711.87160383 -20.44198034 1710.93694607 -22 1710 C-22 1709.34 -22 1708.68 -22 1708 C-22.71881348 1707.72776611 -23.43762695 1707.45553223 -24.17822266 1707.17504883 C-26.96765996 1706.01346709 -29.51753332 1704.68282773 -32.1484375 1703.19921875 C-33.14206299 1702.64081299 -34.13568848 1702.08240723 -35.15942383 1701.50708008 C-36.75113403 1700.60638794 -36.75113403 1700.60638794 -38.375 1699.6875 C-39.48190186 1699.06447998 -40.58880371 1698.44145996 -41.72924805 1697.79956055 C-47.17696212 1694.73127214 -52.6178157 1691.65087834 -58.05859375 1688.5703125 C-59.49344116 1687.75796143 -59.49344116 1687.75796143 -60.95727539 1686.92919922 C-62.86687023 1685.84793911 -64.77621117 1684.76623048 -66.68530273 1683.68408203 C-72.74129105 1680.2573043 -78.82863644 1676.89388566 -84.9375 1673.5625 C-95.36277927 1667.86587039 -105.59747162 1661.85394261 -115.84521484 1655.84570312 C-129.77682858 1647.69502986 -143.7704392 1639.66006063 -157.875 1631.8125 C-166.12471412 1627.21960575 -174.27270025 1622.49651217 -182.34667969 1617.60205078 C-192.35454827 1611.54675266 -202.51042031 1605.74851478 -212.65332031 1599.92333984 C-218.10638623 1596.78945793 -223.55291228 1593.64425723 -229 1590.5 C-231.16663414 1589.24994361 -233.33330083 1587.99994366 -235.5 1586.75 C-265.83333333 1569.25 -296.16666667 1551.75 -326.5 1534.25 C-327.57266113 1533.63116943 -328.64532227 1533.01233887 -329.75048828 1532.37475586 C-331.91557071 1531.12564482 -334.08060982 1529.87645871 -336.24560547 1528.62719727 C-341.68615706 1525.48797691 -347.12747216 1522.35009437 -352.5703125 1519.21484375 C-363.02206199 1513.19252671 -373.46299548 1507.15330663 -383.875 1501.0625 C-392.55262241 1495.98724877 -401.26605568 1490.97741233 -410 1486 C-419.72115617 1480.4599827 -429.40894658 1474.86625191 -439.06689453 1469.21655273 C-449.59084625 1463.06233258 -460.15380137 1456.97630004 -470.71777344 1450.89111328 C-476.14659942 1447.76319852 -481.57319281 1444.63141552 -487 1441.5 C-489.16665583 1440.24998121 -491.3333225 1438.99998122 -493.5 1437.75 C-515.16666667 1425.25 -536.83333333 1412.75 -558.5 1400.25 C-560.11007935 1399.3211499 -560.11007935 1399.3211499 -561.75268555 1398.37353516 C-563.91049803 1397.12858718 -566.06821353 1395.8834711 -568.22583008 1394.63818359 C-573.77716592 1391.43447349 -579.33036541 1388.2340637 -584.88671875 1385.0390625 C-587.15375629 1383.73456694 -589.42068509 1382.42988238 -591.6875 1381.125 C-592.77458252 1380.49948242 -593.86166504 1379.87396484 -594.98168945 1379.22949219 C-602.03293849 1375.16240246 -609.02466633 1371.01349961 -615.94921875 1366.734375 C-618.97861433 1364.93207067 -618.97861433 1364.93207067 -622.29541016 1363.6159668 C-625.80283362 1362.13247363 -629.04133221 1360.34717255 -632.32421875 1358.41015625 C-633.19381477 1357.89919655 -633.19381477 1357.89919655 -634.08097839 1357.37791443 C-635.95226534 1356.27686655 -637.81994073 1355.16985673 -639.6875 1354.0625 C-640.99023553 1353.29399682 -642.2931342 1352.52577012 -643.59619141 1351.7578125 C-653.39973521 1345.97373993 -663.17130834 1340.13638721 -672.91699219 1334.25537109 C-674.79925625 1333.1209827 -676.68390363 1331.99075939 -678.5703125 1330.86328125 C-679.70210937 1330.18652344 -680.83390625 1329.50976562 -682 1328.8125 C-682.55977539 1328.47863281 -683.11955078 1328.14476562 -683.69628906 1327.80078125 C-687.51572347 1325.51442821 -691.31323989 1323.19440636 -695.10113525 1320.85612488 C-697.63405555 1319.29362705 -700.17048427 1317.73686884 -702.70703125 1316.18026733 C-703.97792475 1315.39819302 -705.24715719 1314.6134125 -706.51464844 1313.82583618 C-708.31032916 1312.71036893 -710.1115451 1311.60437529 -711.9140625 1310.5 C-713.4911499 1309.52546875 -713.4911499 1309.52546875 -715.10009766 1308.53125 C-717.82464132 1307.09259552 -719.96657246 1306.40250041 -723 1306 C-723 1305.01 -723 1304.02 -723 1303 C-723.721875 1303.103125 -724.44375 1303.20625 -725.1875 1303.3125 C-728 1303 -728 1303 -730.13351136 1300.68087971 C-732.82672471 1298.16205549 -733.81470047 1297.55577623 -737.13042897 1296.50880134 C-742.37813791 1294.67872001 -746.64088588 1292.55866033 -750 1288 C-753.22743044 1278.22252423 -752.33970256 1267.0609198 -752.20255251 1256.87391468 C-752.16209189 1252.4780843 -752.22021969 1248.08336424 -752.26568669 1243.68773544 C-752.33170033 1235.9849931 -752.33443957 1228.28423895 -752.29565811 1220.58134079 C-752.23814635 1209.12730855 -752.27767236 1197.67503938 -752.33619829 1186.22108633 C-752.43737256 1165.76500592 -752.440704 1145.30978077 -752.40198139 1124.85353801 C-752.3681985 1106.95103004 -752.36471869 1089.04884862 -752.39168358 1071.14632797 C-752.39518988 1068.74588315 -752.39869607 1066.34543834 -752.40220216 1063.94499352 C-752.40754118 1060.32783837 -752.4129205 1056.71068329 -752.41839501 1053.09352834 C-752.48605221 1007.88027469 -752.45206014 962.6675828 -752.37445538 917.4543729 C-752.30618485 877.28020778 -752.3346422 837.10717406 -752.44262695 796.93310547 C-752.56365413 751.80611584 -752.61922059 706.67978502 -752.5731656 661.55263412 C-752.56845161 656.74219074 -752.56392573 651.93174721 -752.55949974 647.12130356 C-752.55835769 645.93683453 -752.55721565 644.75236549 -752.55603899 643.53200346 C-752.54002452 625.64151931 -752.57462453 607.75158803 -752.63421059 589.86120987 C-752.70177117 569.51804499 -752.69870539 549.17627906 -752.6017519 528.83320369 C-752.54951662 517.44569772 -752.5524331 506.06135718 -752.63462536 494.67401054 C-752.6839773 487.06827641 -752.66066366 479.46500675 -752.5781471 471.85956585 C-752.53313699 467.52389217 -752.519559 463.19445589 -752.59420291 458.85905017 C-752.99813693 433.70776961 -752.99813693 433.70776961 -747.95009623 427.46490201 C-743.15888811 423.42907484 -737.94276432 420.8802164 -732.02300621 418.90340101 C-729.65612822 418.06221285 -729.65612822 418.06221285 -728 415 C-725.375 414.8125 -725.375 414.8125 -723 415 C-722.67 413.68 -722.34 412.36 -722 411 C-721.30503418 410.9071875 -720.61006836 410.814375 -719.89404297 410.71875 C-716.38082712 409.84622533 -713.80785291 408.34963345 -710.6953125 406.5 C-710.09427704 406.14542725 -709.49324158 405.79085449 -708.87399292 405.42553711 C-706.95359317 404.29039877 -705.03930097 403.14538685 -703.125 402 C-701.87799004 401.26106716 -700.63059694 400.52278052 -699.3828125 399.78515625 C-692.46155824 395.68719006 -685.56820058 391.54257149 -678.67344666 387.40023804 C-674.18023583 384.70272756 -669.67699167 382.02254942 -665.16796875 379.3515625 C-664.1921006 378.77344818 -664.1921006 378.77344818 -663.19651794 378.18365479 C-660.49312329 376.58243559 -657.78956093 374.98149966 -655.08596802 373.38061523 C-646.13330127 368.07704727 -637.19391628 362.75729127 -628.3894043 357.20947266 C-625.03466975 355.12179388 -621.76473116 353.46157614 -618.09741211 351.96142578 C-612.89927504 349.57866897 -608.01008345 346.54585079 -603.0625 343.6875 C-601.80954871 342.96728367 -600.55645405 342.2473167 -599.30322266 341.52758789 C-590.4929044 336.46209892 -581.70962998 331.35012576 -572.93725586 326.21923828 C-562.41228555 320.0635012 -551.84762236 313.97712015 -541.28222656 307.89111328 C-535.85340058 304.76319852 -530.42680719 301.63141552 -525 298.5 C-522.83334417 297.24998121 -520.6666775 295.99998122 -518.5 294.75 C-517.4275 294.13125 -516.355 293.5125 -515.25 292.875 C-297.50000001 167.25 -297.50000001 167.25 -294.24951172 165.37475586 C-292.08442929 164.12564482 -289.91939018 162.87645871 -287.75439453 161.62719727 C-282.31384294 158.48797691 -276.87252784 155.35009437 -271.4296875 152.21484375 C-260.97793881 146.19252718 -250.53694017 140.15341586 -240.125 134.0625 C-231.40762479 128.96289339 -222.65090978 123.93535218 -213.875 118.9375 C-203.66343787 113.12108387 -193.51678021 107.20388085 -183.41015625 101.20703125 C-168.49877868 92.35926916 -153.50229043 83.68387678 -138.35400391 75.24804688 C-131.21149907 71.26184259 -124.1212637 67.1950684 -117.0625 63.0625 C-115.59864868 62.20555542 -115.59864868 62.20555542 -114.10522461 61.33129883 C-112.10653421 60.16077064 -110.10791854 58.99011485 -108.109375 57.81933594 C-80.64747881 41.75102168 -80.64747881 41.75102168 -68.19750977 35.27783203 C-57.2505674 29.56161558 -46.57141062 23.32032396 -35.95703125 17.01171875 C-34.77947266 16.31260376 -34.77947266 16.31260376 -33.578125 15.59936523 C-32.10023583 14.7191612 -30.62484314 13.83474789 -29.15234375 12.94555664 C-24.21809451 10 -24.21809451 10 -22 10 C-22 9.34 -22 8.68 -22 8 C-19.46917897 6.45806272 -16.92794722 4.94199516 -14.375 3.4375 C-13.66214844 2.99986328 -12.94929687 2.56222656 -12.21484375 2.11132812 C-7.77486986 -0.47526217 -5.10570916 -1.79242981 0 0 Z M-10.06640625 184.7109375 C-11.10015381 185.29093506 -12.13390137 185.87093262 -13.19897461 186.46850586 C-14.30893799 187.09764893 -15.41890137 187.72679199 -16.5625 188.375 C-17.70275635 189.01767822 -18.8430127 189.66035645 -20.01782227 190.32250977 C-26.85556515 194.18711111 -33.65920507 198.10344831 -40.41455078 202.11010742 C-46.72669209 205.85283062 -53.0791627 209.52388883 -59.4375 213.1875 C-60.54472412 213.82550537 -61.65194824 214.46351074 -62.79272461 215.12084961 C-65.06337068 216.42889477 -67.33412358 217.73675448 -69.60498047 219.04443359 C-75.0716998 222.19332054 -80.53574887 225.34683264 -86 228.5 C-88.16665311 229.7500235 -90.33331979 231.00002347 -92.5 232.25 C-93.5725 232.86875 -94.645 233.4875 -95.75 234.125 C-105.5 239.75 -105.5 239.75 -108.75048828 241.62524414 C-110.91557071 242.87435518 -113.08060982 244.12354129 -115.24560547 245.37280273 C-120.68615706 248.51202309 -126.12747216 251.64990563 -131.5703125 254.78515625 C-142.02206199 260.80747329 -152.46299548 266.84669337 -162.875 272.9375 C-172.14499777 278.35921178 -181.45831752 283.70204915 -190.78845215 289.01922607 C-199.9128284 294.22045129 -209.00132774 299.48027878 -218.06689453 304.78344727 C-228.59084625 310.93766742 -239.15380137 317.02369996 -249.71777344 323.10888672 C-255.14659942 326.23680148 -260.57319281 329.36858448 -266 332.5 C-268.16665583 333.75001879 -270.3333225 335.00001878 -272.5 336.25 C-273.5725 336.86875 -274.645 337.4875 -275.75 338.125 C-467.5 448.75 -467.5 448.75 -470.75048828 450.62524414 C-472.91557071 451.87435518 -475.08060982 453.12354129 -477.24560547 454.37280273 C-482.68615706 457.51202309 -488.12747216 460.64990563 -493.5703125 463.78515625 C-504.02206199 469.80747329 -514.46299548 475.84669337 -524.875 481.9375 C-534.13693268 487.35449477 -543.44151813 492.69386704 -552.76428223 498.00512695 C-562.45086446 503.52473501 -572.09570295 509.11154655 -581.71484375 514.74804688 C-582.64683594 515.29396484 -583.57882812 515.83988281 -584.5390625 516.40234375 C-585.35584473 516.88179443 -586.17262695 517.36124512 -587.01416016 517.85522461 C-588.32127574 518.60873641 -589.6505316 519.3252658 -591 520 C-591 743.74 -591 967.48 -591 1198 C-578.625 1204.93 -578.625 1204.93 -566 1212 C-557.5625 1216.9375 -557.5625 1216.9375 -553.53125 1219.328125 C-547.90132145 1222.66001908 -542.2308083 1225.92147673 -536.5625 1229.1875 C-535.45527588 1229.82550537 -534.34805176 1230.46351074 -533.20727539 1231.12084961 C-530.93662932 1232.42889477 -528.66587642 1233.73675448 -526.39501953 1235.04443359 C-520.9283002 1238.19332054 -515.46425113 1241.34683264 -510 1244.5 C-507.83334689 1245.7500235 -505.66668021 1247.00002347 -503.5 1248.25 C-490.5 1255.75 -477.5 1263.25 -464.5 1270.75 C-463.42733887 1271.36883057 -462.35467773 1271.98766113 -461.24951172 1272.62524414 C-459.08442929 1273.87435518 -456.91939018 1275.12354129 -454.75439453 1276.37280273 C-449.31384294 1279.51202309 -443.87252784 1282.64990563 -438.4296875 1285.78515625 C-427.97793801 1291.80747329 -417.53700452 1297.84669337 -407.125 1303.9375 C-398.44737759 1309.01275123 -389.73394432 1314.02258767 -381 1319 C-371.27884383 1324.5400173 -361.59105342 1330.13374809 -351.93310547 1335.78344727 C-341.40915375 1341.93766742 -330.84619863 1348.02369996 -320.28222656 1354.10888672 C-314.85340058 1357.23680148 -309.42680719 1360.36858448 -304 1363.5 C-301.83334417 1364.75001879 -299.6666775 1366.00001878 -297.5 1367.25 C-232.5 1404.75 -167.5 1442.25 -102.5 1479.75 C-101.42733887 1480.36883057 -100.35467773 1480.98766113 -99.24951172 1481.62524414 C-97.08442929 1482.87435518 -94.91939018 1484.12354129 -92.75439453 1485.37280273 C-87.31384294 1488.51202309 -81.87252784 1491.64990563 -76.4296875 1494.78515625 C-66.96076187 1500.24116839 -57.49438846 1505.70058974 -48.0625 1511.22045898 C-45.13345387 1512.9325585 -42.19966723 1514.63632369 -39.265625 1516.33984375 C-35.29762361 1518.64683618 -31.34985396 1520.98401422 -27.41543579 1523.34754944 C-24.86655703 1524.87386768 -22.30792689 1526.38332369 -19.74749756 1527.89016724 C-18.50894476 1528.62425977 -17.27465907 1529.36560468 -16.04498291 1530.11447144 C-14.33030764 1531.15754746 -12.59900632 1532.17314186 -10.8671875 1533.1875 C-9.87831543 1533.77917969 -8.88944336 1534.37085938 -7.87060547 1534.98046875 C-4.1165393 1536.31377206 -2.57262926 1535.6354254 1 1534 C2.64422579 1533.15205726 4.26231535 1532.25167158 5.8515625 1531.3046875 C6.77066406 1530.76199219 7.68976562 1530.21929688 8.63671875 1529.66015625 C9.62285156 1529.07105469 10.60898438 1528.48195313 11.625 1527.875 C13.78313461 1526.60034343 15.94201956 1525.3269566 18.1015625 1524.0546875 C19.79394043 1523.05646973 19.79394043 1523.05646973 21.52050781 1522.03808594 C26.72922437 1518.97803362 31.98107186 1515.99350105 37.23168945 1513.00613403 C47.5461387 1507.13741463 57.82353475 1501.20870569 68.06689453 1495.21655273 C78.59084625 1489.06233258 89.15380137 1482.97630004 99.71777344 1476.89111328 C105.14659942 1473.76319852 110.57319281 1470.63141552 116 1467.5 C118.16665583 1466.24998121 120.3333225 1464.99998122 122.5 1463.75 C123.5725 1463.13125 124.645 1462.5125 125.75 1461.875 C291.50000001 1366.25 291.50000001 1366.25 294.75048828 1364.37475586 C296.91557071 1363.12564482 299.08060982 1361.87645871 301.24560547 1360.62719727 C306.68615706 1357.48797691 312.12747216 1354.35009437 317.5703125 1351.21484375 C328.02206199 1345.19252671 338.46299548 1339.15330663 348.875 1333.0625 C358.14499777 1327.64078822 367.45831752 1322.29795085 376.78845215 1316.98077393 C385.9128284 1311.77954871 395.00132774 1306.51972122 404.06689453 1301.21655273 C414.59084625 1295.06233258 425.15380137 1288.97630004 435.71777344 1282.89111328 C441.14659942 1279.76319852 446.57319281 1276.63141552 452 1273.5 C454.16665583 1272.24998121 456.3333225 1270.99998122 458.5 1269.75 C459.5725 1269.13125 460.645 1268.5125 461.75 1267.875 C482.33333333 1256 502.91666667 1244.125 523.5 1232.25 C524.5734668 1231.63068604 525.64693359 1231.01137207 526.75292969 1230.37329102 C528.90980903 1229.12895002 531.06670992 1227.88464636 533.22363281 1226.64038086 C538.20991218 1223.7638842 543.1960071 1220.88706999 548.18127441 1218.00881958 C549.91636728 1217.00708606 551.65153257 1216.00547811 553.38671875 1215.00390625 C555.54050668 1213.76066281 557.69416471 1212.51719428 559.84765625 1211.2734375 C567.55252509 1206.82639907 575.27577895 1202.4138406 583 1198 C583 974.26 583 750.52 583 520 C570.625 513.07 570.625 513.07 558 506 C549.5625 501.0625 549.5625 501.0625 545.53125 498.671875 C539.90132145 495.33998092 534.2308083 492.07852327 528.5625 488.8125 C527.45527588 488.17449463 526.34805176 487.53648926 525.20727539 486.87915039 C522.93662932 485.57110523 520.66587642 484.26324552 518.39501953 482.95556641 C512.9283002 479.80667946 507.46425113 476.65316736 502 473.5 C499.83334689 472.2499765 497.66668021 470.99997653 495.5 469.75 C482.5 462.25 469.5 454.75 456.5 447.25 C455.42733887 446.63116943 454.35467773 446.01233887 453.24951172 445.37475586 C451.08442929 444.12564482 448.91939018 442.87645871 446.75439453 441.62719727 C441.31384294 438.48797691 435.87252784 435.35009437 430.4296875 432.21484375 C419.97793801 426.19252671 409.53700452 420.15330663 399.125 414.0625 C390.44737759 408.98724877 381.73394432 403.97741233 373 399 C363.27884383 393.4599827 353.59105342 387.86625191 343.93310547 382.21655273 C333.40915375 376.06233258 322.84619863 369.97630004 312.28222656 363.89111328 C306.85340058 360.76319852 301.42680719 357.63141552 296 354.5 C293.83334417 353.24998121 291.6666775 351.99998122 289.5 350.75 C224.5 313.25 159.5 275.75 94.5 238.25 C92.8910083 237.32175415 92.8910083 237.32175415 91.24951172 236.37475586 C89.08442929 235.12564482 86.91939018 233.87645871 84.75439453 232.62719727 C79.31384294 229.48797691 73.87252784 226.35009437 68.4296875 223.21484375 C57.97793269 217.19252365 47.53743326 211.15257881 37.125 205.0625 C28.60787897 200.08843816 20.07932894 195.13432686 11.527771 190.21969604 C10.26539379 189.49342928 9.00386827 188.76568 7.7432251 188.03640747 C5.99006336 187.02272673 4.23339207 186.01512307 2.4765625 185.0078125 C1.46674316 184.42660645 0.45692383 183.84540039 -0.58349609 183.24658203 C-4.67736282 181.13471261 -6.22499776 182.54812488 -10.06640625 184.7109375 Z " fill="#FEC548" transform="translate(1028,165)"/>
<path d="M0 0 C1.49213979 0.00933727 2.98429502 0.01644907 4.47645569 0.0214386 C8.38456295 0.04043706 12.29172607 0.08947359 16.19946289 0.1449585 C20.89836366 0.20535107 25.59758194 0.22810151 30.29676056 0.25722504 C37.41822408 0.30554342 44.5391227 0.39768627 51.66015625 0.48828125 C52.38734786 25.9334673 52.75952811 51.31644361 52.32256317 76.76807785 C52.16133969 86.27366197 52.04413744 95.77986476 51.93164062 105.28613281 C51.91273026 106.87919113 51.91273026 106.87919113 51.89343786 108.50443244 C51.5465759 138.58725414 51.55415326 168.67158455 51.52885437 198.75600433 C51.5210102 208.06176226 51.50856506 217.36750995 51.49466091 226.6732606 C51.48827352 230.95393283 51.48209656 235.23460536 51.47589874 239.51527786 C51.47466423 240.36733074 51.47342972 241.21938362 51.47215781 242.09725629 C51.46840953 244.68723335 51.4646728 247.27721042 51.4609375 249.8671875 C51.45969545 250.72432655 51.4584534 251.58146561 51.45717371 252.46457857 C51.42660571 273.65523509 51.4075216 294.84582451 51.40997931 316.03650407 C51.41126089 330.84375398 51.39351369 345.65089971 51.35896134 360.4581095 C51.33851951 369.49339426 51.33281252 378.52842742 51.34728965 387.56372495 C51.35578685 393.71213781 51.34591882 399.86035396 51.32198015 406.00872533 C51.30879181 409.53582116 51.3032826 413.06244358 51.32010078 416.58953476 C51.37352871 431.23544538 50.92592071 444.62843495 46.27643728 458.60461545 C45.31105073 461.55532389 44.51649981 464.55140476 43.703125 467.546875 C39.76576411 481.2246835 35.26329285 494.40911497 29.66015625 507.48828125 C28.89527906 509.30184967 28.13097221 511.11565871 27.3671875 512.9296875 C18.56488869 533.73796817 8.9070137 553.89508575 -2.33984375 573.48828125 C-3.00530257 574.65619631 -3.67066801 575.82416458 -4.3359375 576.9921875 C-14.5336689 594.82194714 -14.5336689 594.82194714 -20.34375 601.93359375 C-22.52328816 604.72306137 -24.5318538 607.60031206 -26.54638672 610.51000977 C-34.37726444 621.81535949 -43.0374443 632.04689979 -52.2890625 642.21875 C-54.19212463 644.32480543 -56.05138196 646.46148594 -57.90234375 648.61328125 C-63.9804191 655.55369223 -70.50671007 661.57955154 -77.70703125 667.34765625 C-79.86914909 669.10557995 -81.91975177 670.91159314 -83.96484375 672.80078125 C-96.69705131 683.96396929 -111.48411851 692.51205294 -126.33984375 700.48828125 C-127.05043945 700.875 -127.76103516 701.26171875 -128.49316406 701.66015625 C-150.62971048 713.52938755 -178.20509233 720.67748282 -203.33984375 721.48828125 C-204.37238281 721.52824219 -205.40492188 721.56820312 -206.46875 721.609375 C-240.87160185 722.28706733 -274.86094066 712.86360229 -301.33984375 690.48828125 C-302.24347656 689.77929688 -303.14710938 689.0703125 -304.078125 688.33984375 C-313.89853353 680.59761296 -321.41695802 671.85580672 -328.33984375 661.48828125 C-328.8296875 660.80636719 -329.31953125 660.12445312 -329.82421875 659.421875 C-359.13220214 617.90223187 -361.02745672 558.97256703 -353.33984375 510.48828125 C-353.18467285 509.49844238 -353.02950195 508.50860352 -352.86962891 507.48876953 C-351.9431611 501.69291538 -350.92587483 495.91858219 -349.83837891 490.15087891 C-349.3672341 487.63456882 -348.91987968 485.11508448 -348.4765625 482.59375 C-344.43479862 460.30611444 -337.36294486 438.85136243 -329.5703125 417.62890625 C-327.9041233 413.09032954 -326.38372319 408.54637005 -324.96484375 403.92578125 C-321.45302343 393.17786141 -316.45098397 382.9658043 -311.78515625 372.68310547 C-309.83852627 368.38013251 -307.93255702 364.05969919 -306.02734375 359.73828125 C-304.175788 355.54716281 -302.29758947 351.37344179 -300.33203125 347.234375 C-300.00759033 346.55020508 -299.68314941 345.86603516 -299.34887695 345.16113281 C-298.46771609 343.31289961 -297.57794869 341.46877644 -296.6875 339.625 C-295.49810425 336.85663829 -294.77954505 334.45487354 -294.33984375 331.48828125 C-293.34984375 331.48828125 -292.35984375 331.48828125 -291.33984375 331.48828125 C-291.0975 330.65554688 -290.85515625 329.8228125 -290.60546875 328.96484375 C-289.15146526 324.97082183 -287.22728826 321.52210154 -285.08984375 317.86328125 C-282.38313237 313.15167815 -279.76585909 308.44711819 -277.40234375 303.55078125 C-272.27737137 293.10097685 -266.20829949 283.07244426 -259.609375 273.4921875 C-258.27429657 271.38481755 -257.2553 269.25458413 -256.21484375 266.98828125 C-253.4563052 261.25832658 -249.76330149 256.28982162 -246.05615234 251.15039062 C-242.62226467 246.36826012 -239.40569311 241.51335315 -236.33984375 236.48828125 C-229.53952666 225.38946827 -222.03642285 214.75749133 -213.91015625 204.58984375 C-212.08108242 202.14197877 -210.5016708 199.59167012 -208.90234375 196.98828125 C-206.09999454 192.48450573 -202.97663592 188.69046563 -199.3828125 184.8046875 C-195.1748892 180.03356223 -191.63115544 174.72727426 -187.9609375 169.5390625 C-184.04885565 164.15557076 -179.66791808 159.19724337 -175.29248047 154.19067383 C-172.05665061 150.48450383 -168.87611953 146.74835868 -165.77734375 142.92578125 C-157.79377796 133.09537966 -149.52309722 123.56574596 -140.85571289 114.33251953 C-138.00554783 111.29516784 -135.22168569 108.22888004 -132.52734375 105.05078125 C-129.71684542 101.78227579 -126.60555526 99.06266428 -123.32421875 96.27734375 C-119.22607042 92.58255648 -115.72472515 88.31989858 -112.40234375 83.92578125 C-109.98361495 81.06728358 -107.2960017 78.74158338 -104.4375 76.33203125 C-101.06134316 73.36453399 -97.96477238 70.13073124 -94.83203125 66.91015625 C-89.42103294 61.3860923 -83.88286983 56.36153931 -77.82421875 51.53515625 C-75.68627895 49.77370899 -73.75861072 47.98014411 -71.83984375 45.98828125 C-67.3812921 41.38111121 -62.3335518 37.49407416 -57.33984375 33.48828125 C-52.51473306 29.57224939 -47.69312589 25.65457661 -42.96875 21.6171875 C-42.39624512 21.12847168 -41.82374023 20.63975586 -41.23388672 20.13623047 C-40.13009711 19.19161395 -39.02868957 18.24420375 -37.93017578 17.29345703 C-34.55705335 14.40570658 -31.0607591 11.90582512 -27.33984375 9.48828125 C-24.66125721 7.35914836 -22.10726104 5.26456884 -19.63842773 2.88989258 C-13.91270406 -1.14511171 -6.69678359 -0.12335366 0 0 Z M-21.40234375 90.55078125 C-22.78099609 91.68193359 -22.78099609 91.68193359 -24.1875 92.8359375 C-30.70236684 98.27733308 -36.99889317 103.94886498 -43.17578125 109.76953125 C-44.26625259 110.7969342 -44.26625259 110.7969342 -45.37875366 111.84509277 C-53.25975 119.3072394 -60.95508379 126.95226854 -68.61865234 134.63671875 C-70.9946105 137.01811614 -73.37597706 139.39401368 -75.7578125 141.76953125 C-77.29849837 143.31087684 -78.83887459 144.85253201 -80.37890625 146.39453125 C-81.07690338 147.09050415 -81.77490051 147.78647705 -82.49404907 148.50354004 C-86.97486123 153.00558056 -91.19844493 157.67386792 -95.33984375 162.48828125 C-96.83554602 164.15880587 -98.33488641 165.82608957 -99.83984375 167.48828125 C-102.70407099 170.66693481 -105.565742 173.84742695 -108.40234375 177.05078125 C-108.97082031 177.69144531 -109.53929687 178.33210938 -110.125 178.9921875 C-111.44490436 180.29646276 -111.44490436 180.29646276 -111.33984375 181.48828125 C-79.65984375 181.48828125 -47.97984375 181.48828125 -15.33984375 181.48828125 C-15.33984375 150.13828125 -15.33984375 118.78828125 -15.33984375 86.48828125 C-17.5095906 86.48828125 -19.86365883 89.28300647 -21.40234375 90.55078125 Z M-174.04431438 260.27447987 C-174.82479317 261.91302935 -175.57746496 263.56520295 -176.29758644 265.23116112 C-177.77869603 268.43866298 -179.71931528 270.96790291 -181.90234375 273.73828125 C-184.21839711 276.8873434 -186.34298998 280.01003946 -188.19921875 283.4609375 C-190.22933964 287.06926881 -192.47871441 290.55241533 -194.69921875 294.04638672 C-196.71245249 297.03704471 -196.71245249 297.03704471 -197.33984375 300.48828125 C-197.99984375 300.48828125 -198.65984375 300.48828125 -199.33984375 300.48828125 C-200.68271621 302.21395224 -200.68271621 302.21395224 -201.984375 304.4765625 C-202.49677734 305.32927734 -203.00917969 306.18199219 -203.53710938 307.06054688 C-204.07013672 307.96482422 -204.60316406 308.86910156 -205.15234375 309.80078125 C-205.93448242 311.09338867 -205.93448242 311.09338867 -206.73242188 312.41210938 C-210.46120735 318.67330346 -213.26890391 324.73221361 -216.33984375 331.48828125 C-150.00984375 331.48828125 -83.67984375 331.48828125 -15.33984375 331.48828125 C-15.33984375 304.09828125 -15.33984375 276.70828125 -15.33984375 248.48828125 C-41.50433964 247.93433374 -41.50433964 247.93433374 -67.66992188 247.56054688 C-78.34820752 247.447976 -89.02363641 247.31596699 -99.69946289 247.05493164 C-107.47659195 246.86486406 -115.25139594 246.74282318 -123.030783 246.70059985 C-127.14717284 246.67592951 -131.25691544 246.61850535 -135.37116051 246.47941017 C-158.40760764 245.22360203 -158.40760764 245.22360203 -174.04431438 260.27447987 Z M-250.33984375 398.48828125 C-255.30193787 408.28019418 -255.30193787 408.28019418 -259.15234375 418.23828125 C-261.18205305 424.23549518 -263.34246922 430.16388608 -265.61328125 436.07421875 C-269.05134629 445.05010668 -272.30297718 454.05707636 -275.15234375 463.23828125 C-275.55054321 464.4924585 -275.55054321 464.4924585 -275.95678711 465.77197266 C-278.82239337 475.26401224 -280.36958891 484.63700704 -282.33984375 494.48828125 C-201.15984375 494.48828125 -119.97984375 494.48828125 -36.33984375 494.48828125 C-30.34880056 481.62941993 -30.34880056 481.62941993 -25.98095703 468.75585938 C-24.72413171 464.31054576 -22.95452345 460.03858244 -21.27734375 455.73828125 C-20.57696709 453.93143799 -19.87771702 452.12415756 -19.1796875 450.31640625 C-18.87409912 449.53168945 -18.56851074 448.74697266 -18.25366211 447.93847656 C-11.51702693 429.87572724 -15.33984375 427.63571889 -15.33984375 398.48828125 C-92.88984375 398.48828125 -170.43984375 398.48828125 -250.33984375 398.48828125 Z M-289.33984375 561.48828125 C-287.68310241 577.22732395 -285.7291476 591.49486789 -280.33984375 606.17578125 C-280.10297852 606.82313232 -279.86611328 607.4704834 -279.62207031 608.13745117 C-278.00389302 612.32506127 -275.94340022 615.84228518 -273.33984375 619.48828125 C-272.84484375 620.19210937 -272.34984375 620.8959375 -271.83984375 621.62109375 C-264.68293132 631.12636807 -256.84182757 640.58328674 -245.33984375 644.48828125 C-243.55187869 645.25340143 -241.76404028 646.01883022 -239.97827148 646.7890625 C-213.54843237 657.9550163 -186.0238429 651.6466464 -160.33984375 641.48828125 C-150.3683475 637.18526098 -141.63314771 631.61630968 -133.2265625 624.78125 C-129.97621645 622.19944603 -126.59517602 619.98594047 -123.046875 617.83984375 C-121.20202863 616.58040278 -121.20202863 616.58040278 -120.3515625 614.44921875 C-119.04976391 611.92604157 -117.86514767 611.73995363 -115.33984375 610.48828125 C-113.29800296 608.58686968 -111.34040275 606.67674853 -109.40234375 604.67578125 C-108.88994141 604.15435547 -108.37753906 603.63292969 -107.84960938 603.09570312 C-106.82645596 602.05434876 -105.80601406 601.01032317 -104.78833008 599.96362305 C-103.49791056 598.64927867 -102.17854253 597.36349894 -100.85546875 596.08203125 C-97.69141873 592.81971881 -94.86817627 589.34449153 -92.02734375 585.80078125 C-91.17293701 584.74165527 -91.17293701 584.74165527 -90.30126953 583.66113281 C-88.64454685 581.60583899 -86.99179673 579.54740938 -85.33984375 577.48828125 C-84.50014003 576.44519975 -83.660313 575.40221751 -82.8203125 574.359375 C-80.98540127 572.07509775 -79.15162552 569.79093985 -77.33984375 567.48828125 C-76.49292969 566.42867187 -76.49292969 566.42867187 -75.62890625 565.34765625 C-74.14992757 563.59142678 -74.14992757 563.59142678 -74.33984375 561.48828125 C-145.28984375 561.48828125 -216.23984375 561.48828125 -289.33984375 561.48828125 Z " fill="#FEC549" transform="translate(916.33984375,619.51171875)"/>
<path d="M0 0 C7.75956207 -0.15957361 15.5184495 -0.31328401 23.27929688 -0.390625 C28.03516034 -0.43824627 32.78977884 -0.49425286 37.54467773 -0.60351562 C41.38330789 -0.69116014 45.22060155 -0.73842073 49.06015587 -0.75901794 C50.51659858 -0.77367354 51.97297728 -0.80229185 53.42884254 -0.84584045 C63.92189722 -1.14690971 70.11503215 0.88398775 78 8 C79.65995567 9.34167907 81.32568433 10.67628455 83 12 C89.40410233 17.08332559 95.72852715 22.24901189 101.99609375 27.5 C104.80893034 29.84098234 107.65046256 32.14146983 110.5 34.4375 C114.99999122 38.10344112 119.27117765 41.95761346 123.51513672 45.91162109 C126.78204222 48.93739534 130.14327964 51.78202755 133.625 54.5625 C139.146777 59.00705172 144.06964748 63.91820321 149 69 C152.18821194 72.24335397 155.45078782 75.32041684 158.875 78.3125 C162.66195556 81.69431321 166.08820475 85.17552654 169.33203125 89.078125 C172.22295979 92.40912462 175.4183847 95.43424693 178.578125 98.5078125 C184.06027435 103.87775411 189.03303787 109.36890523 193.8203125 115.3828125 C195.9295522 117.91541214 198.13822082 120.20359879 200.5 122.5 C204.5206903 126.42347154 208.0399738 130.59961826 211.55078125 134.98046875 C214.30525848 138.3763394 217.14301207 141.69046446 220 145 C228.269252 154.60498388 236.21872382 164.37427366 243.63671875 174.65234375 C244.11705566 175.31459961 244.59739258 175.97685547 245.09228516 176.65917969 C246.05047004 177.98109931 247.00477283 179.30584426 247.95458984 180.63378906 C250.00169168 183.45671974 251.97096787 185.97170054 254.4765625 188.4140625 C257.82052232 191.84084485 260.23309867 195.6700585 262.8125 199.6875 C266.05042667 204.64731846 269.25426167 209.51464513 273.0625 214.0625 C277.5821735 219.51406494 281.26793003 225.4558366 285.06640625 231.41796875 C288.04466194 236.09149292 291.10657584 240.70621155 294.1875 245.3125 C294.94426025 246.44776123 294.94426025 246.44776123 295.71630859 247.60595703 C297.89941945 250.8774055 300.09028963 254.14190874 302.32421875 257.37890625 C306.19959652 263.04064863 309.50985677 268.68133503 312.3828125 274.91796875 C314.17751013 278.33829829 316.26524392 281.44336041 318.43017578 284.63745117 C320.90107385 288.35609512 323.14516852 292.19589027 325.375 296.0625 C325.84687744 296.8781543 326.31875488 297.69380859 326.80493164 298.53417969 C330.54423246 305.06386169 333.96735614 311.71393589 337.24609375 318.484375 C338.50503755 321.00787037 339.79739834 323.40412339 341.22265625 325.828125 C343 329 343 329 343 331 C343.99 331 344.98 331 346 331 C346.15855469 331.60585938 346.31710937 332.21171875 346.48046875 332.8359375 C347.97798463 338.21375695 349.87514513 342.97143293 352.4453125 347.9140625 C356.25197767 355.47000592 359.57695844 363.2650476 363 371 C363.79978271 372.80090088 363.79978271 372.80090088 364.61572266 374.63818359 C366.06829842 377.912254 367.51125327 381.19045065 368.94897461 384.47106934 C369.51561114 385.76142103 370.08454656 387.05076617 370.65600586 388.33898926 C373.92552428 395.71786251 376.76489824 403.07811428 379.03637695 410.83032227 C380.33333352 415.09644518 381.89311542 419.2461609 383.45092773 423.42260742 C391.40256224 444.8190194 398.43432962 467.16530736 401.66992188 489.81445312 C402.06516046 492.43144705 402.52324099 495.03444063 402.984375 497.640625 C404.06074442 503.74984136 405.05949761 509.8684266 406 516 C406.12294434 516.79615723 406.24588867 517.59231445 406.37255859 518.41259766 C410.08531773 543.78034359 409.87062342 571.85157301 405 597 C404.85546387 597.74862305 404.71092773 598.49724609 404.56201172 599.26855469 C403.5633795 604.23406815 402.33009529 609.1142261 401 614 C400.79004395 614.80034668 400.58008789 615.60069336 400.36376953 616.42529297 C397.23628365 628.2379684 393.14174762 638.45893216 387 649 C385.9754595 650.95639641 384.95431641 652.91457797 383.9375 654.875 C381.10822852 660.03157543 377.72559371 664.46616799 374 669 C373.35546875 669.85207031 372.7109375 670.70414063 372.046875 671.58203125 C363.25928577 682.95707731 351.88781312 692.01097186 340 700 C339.15050781 700.58136719 338.30101562 701.16273438 337.42578125 701.76171875 C306.74482782 721.23821558 264.87310916 725.16167814 229.96484375 717.77734375 C223.59901315 716.34684778 217.29205385 714.72448883 211 713 C210.08959961 712.7515332 209.17919922 712.50306641 208.24121094 712.24707031 C176.02021529 703.16955126 147.22578947 683.69658681 123 661 C121.60966753 659.7853413 120.21423249 658.57648499 118.8125 657.375 C111.98053804 651.42143315 105.87236752 644.88806529 100 638 C99.17628906 637.05382813 98.35257813 636.10765625 97.50390625 635.1328125 C91.03675955 627.65852544 85.08684348 619.90033703 79.33642578 611.86425781 C78.0333719 610.0465524 76.71936695 608.23728812 75.40234375 606.4296875 C60.96459665 586.53589556 60.96459665 586.53589556 56.0703125 576.0859375 C54.64355619 573.30532485 52.97760127 570.70707261 51.3125 568.0625 C44.32531823 556.8075424 38.17588025 545.29532016 33.58203125 532.85546875 C32.30789174 529.5633775 30.74343223 526.46052211 29.140625 523.31640625 C26.06814537 517.24850718 23.43663612 511.07274023 20.9375 504.75 C20.50123291 503.64938232 20.06496582 502.54876465 19.61547852 501.41479492 C16.66026496 493.87365694 14.00115903 486.35031178 11.75146484 478.56640625 C10.76996573 475.21438589 9.75348191 471.87317261 8.73828125 468.53125 C7.90814059 465.79188247 7.07899155 463.05221547 6.25 460.3125 C6.04696259 459.64239899 5.84392517 458.97229797 5.63473511 458.28189087 C5.05086583 456.3514418 4.47068665 454.41987785 3.890625 452.48828125 C3.55063477 451.35946533 3.21064453 450.23064941 2.86035156 449.06762695 C1.60273915 444.58354638 0.87529006 440.49405089 0.86412811 435.83159542 C0.85927037 434.80549064 0.85441262 433.77938585 0.84940767 432.72218698 C0.84911169 431.60109413 0.8488157 430.48000128 0.84851074 429.32493591 C0.84216213 427.52929462 0.84216213 427.52929462 0.83568525 425.69737774 C0.82491503 422.37459518 0.81856332 419.05185686 0.81405044 415.72906339 C0.80809102 412.13975417 0.79642011 408.55046305 0.78541565 404.96116638 C0.76703786 398.72178569 0.75219643 392.48240457 0.73963928 386.24300957 C0.72120555 377.12175322 0.69652626 368.00052154 0.67026538 358.87928475 C0.62737463 343.9477705 0.58834388 329.01624894 0.55224609 314.0847168 C0.54900189 312.74349287 0.54900189 312.74349287 0.54569215 311.37517352 C0.5369581 307.7609304 0.52823947 304.14668725 0.51953927 300.53244406 C0.45234205 272.6298305 0.38158367 244.72722779 0.30269331 216.82464468 C0.28830306 211.7281264 0.2743299 206.6316072 0.26065749 201.53508695 C0.13150476 152.74148769 0.13150476 152.74148769 -0.2890625 103.94970703 C-0.30160096 102.86622345 -0.31413942 101.78273986 -0.32705784 100.66642344 C-0.44021052 91.01427624 -0.56298007 81.36237929 -0.71774912 71.71080405 C-1.09785563 47.78212228 -0.74575417 23.92001301 0 0 Z M67 86 C67 117.35 67 148.7 67 181 C98.68 181 130.36 181 163 181 C161.02 178.69 159.04 176.38 157 174 C155.51530681 172.17113935 154.03570501 170.33812735 152.5625 168.5 C149.47160795 164.70498514 146.30395891 161.16463113 142.77589417 157.77708435 C141.03629983 156.03632415 139.44261569 154.23278852 137.84741211 152.35961914 C133.78213735 147.68408173 129.45159607 143.3075736 125.06640625 138.93359375 C124.22963852 138.09586929 123.39287079 137.25814484 122.53074646 136.39503479 C120.77131896 134.63493065 119.01064347 132.87607323 117.2487793 131.1184082 C114.57030589 128.44529028 111.89721127 125.76687749 109.22460938 123.08789062 C107.50552885 121.36947097 105.78613811 119.65136158 104.06640625 117.93359375 C102.88166466 116.74581581 102.88166466 116.74581581 101.67298889 115.53404236 C96.08702181 109.97131657 90.34505716 104.67604573 84.1875 99.75 C82 98 82 98 80.71484375 96.68359375 C78.39127405 94.40236701 75.8934088 92.37573465 73.375 90.3125 C72.39273437 89.50425781 71.41046875 88.69601562 70.3984375 87.86328125 C68.37457635 85.89775078 68.37457635 85.89775078 67 86 Z M67 248 C67 275.39 67 302.78 67 331 C133.33 331 199.66 331 268 331 C261.88682709 318.54638773 261.88682709 318.54638773 255.125 306.5 C254.74859375 305.85675781 254.3721875 305.21351563 253.984375 304.55078125 C253.04960605 302.99614778 252.03278263 301.49132098 251 300 C250.34 300 249.68 300 249 300 C248.72929688 299.27554688 248.45859375 298.55109375 248.1796875 297.8046875 C247.02452549 295.05830894 245.68711271 292.6583745 244.125 290.125 C242.39054473 287.29400209 240.71562858 284.47865239 239.125 281.5625 C236.81897432 277.49136825 233.99726216 273.80294873 231.22265625 270.04296875 C228.84749735 266.79121343 226.53830253 263.5006076 224.25 260.1875 C223.53328125 259.14980469 222.8165625 258.11210938 222.078125 257.04296875 C220 254 220 254 218.75335693 250.85238647 C215.44538773 247.42544008 214.48554156 247.52344455 209.86236572 247.2784729 C207.19301519 247.26098828 204.53609178 247.27608143 201.86816406 247.31884766 C200.39961314 247.32054033 198.93105713 247.31958965 197.46250916 247.31619263 C193.47689131 247.31447023 189.49235566 247.34975818 185.50698948 247.39163637 C181.34169049 247.4291305 177.176367 247.43266766 173.01092529 247.43978882 C165.12368315 247.45844166 157.23693967 247.50768424 149.34991717 247.56788576 C138.69183711 247.64747368 128.03362079 247.67987397 117.37531853 247.71489906 C100.58317212 247.7713267 83.79207806 247.89085554 67 248 Z M67 398 C66.92047111 403.6227042 66.86301286 409.24507205 66.8249054 414.86820984 C66.80899847 416.77612521 66.78734016 418.68400252 66.75953674 420.59178162 C66.55916331 434.70689993 67.62193583 446.20625305 74 459 C74.9299499 461.20277259 75.84822306 463.41054471 76.75 465.625 C77.14832031 466.54667969 77.54664063 467.46835938 77.95703125 468.41796875 C78.96121585 470.9039838 79.72488171 473.35477361 80.4375 475.9375 C82.36248285 482.17444442 85.26470116 488.07351918 88 494 C169.18 494 250.36 494 334 494 C329.75008071 473.38021646 329.75008071 473.38021646 323.75 453.4375 C323.27006586 452.03178183 322.79074872 450.62585288 322.31201172 449.21972656 C318.50843596 438.12974252 314.33933877 427.19285902 309.93408203 416.328125 C308.2067264 412.02282879 306.59378272 407.67437087 304.97265625 403.328125 C304.00161075 400.79541656 304.00161075 400.79541656 302 398 C298.88055642 397.70595761 295.95977454 397.60921065 292.83798218 397.63923645 C291.87663852 397.63667318 290.91529487 397.6341099 289.92481959 397.63146895 C286.68327366 397.62650284 283.44218706 397.6430706 280.20068359 397.65942383 C277.88514721 397.66026949 275.56961001 397.65979615 273.2540741 397.65809631 C266.9506047 397.65723256 260.64730518 397.67491983 254.34387541 397.69581819 C247.76283845 397.71452171 241.18179796 397.71633042 234.60073853 397.71989441 C223.54922526 397.72767139 212.49777179 397.74693324 201.44628906 397.77368164 C190.06185215 397.8012073 178.67743221 397.82244817 167.29296875 397.83520508 C166.24084098 397.83638733 166.24084098 397.83638733 165.1674581 397.83759347 C161.64874273 397.84150851 158.13002724 397.84529965 154.61131167 397.84902918 C125.4075004 397.88014306 96.20375103 397.93321712 67 398 Z M126 561 C127.49633157 563.99266315 128.9871532 566.65854194 130.8125 569.4375 C131.29332031 570.17871094 131.77414062 570.91992188 132.26953125 571.68359375 C133.99040068 574.1038541 133.99040068 574.1038541 136.35546875 576.34765625 C139.90541269 579.90808747 142.8499386 583.83689429 145.89453125 587.828125 C148.72046395 591.48989695 151.66683392 594.77677343 155 598 C156.16272633 599.18106908 157.32268172 600.36486984 158.48046875 601.55078125 C159.71606836 602.80476385 160.95174673 604.05866883 162.1875 605.3125 C162.81591797 605.95767578 163.44433594 606.60285156 164.09179688 607.26757812 C164.69443359 607.87666016 165.29707031 608.48574219 165.91796875 609.11328125 C166.46219482 609.66798096 167.0064209 610.22268066 167.56713867 610.79418945 C168.9429218 612.2146276 168.9429218 612.2146276 171 612 C171.34611328 612.87591797 171.34611328 612.87591797 171.69921875 613.76953125 C173.33680853 616.57753054 175.14992425 617.82798517 177.8125 619.6875 C178.80636719 620.38359375 179.80023437 621.0796875 180.82421875 621.796875 C181.87222656 622.52390625 182.92023438 623.2509375 184 624 C185.49466797 625.09054687 185.49466797 625.09054687 187.01953125 626.203125 C212.01027939 644.1838897 242.86322432 655.25315992 273.91015625 651.53125 C282.98028537 649.95546749 290.71609959 646.86045844 299 643 C300.134375 642.58878906 301.26875 642.17757812 302.4375 641.75390625 C306.99300129 639.51112108 309.99999794 636.56216581 313.5 632.9375 C314.15782471 632.26501221 314.81564941 631.59252441 315.4934082 630.8996582 C323.05253661 623.04542022 328.51830233 615.37461329 332 605 C332.41121094 603.80375 332.82242188 602.6075 333.24609375 601.375 C337.71034192 588.00217036 339.82386092 575.11366898 341 561 C270.05 561 199.1 561 126 561 Z " fill="#FEC549" transform="translate(1080,620)"/>
<path d="M0 0 C0.33 0 0.66 0 1 0 C0.93143799 0.9890332 0.86287598 1.97806641 0.79223633 2.99707031 C-0.03265033 15.73466894 -0.25176292 28.45842261 -0.29516602 41.22070312 C-0.30668713 43.5664676 -0.32714082 45.91220584 -0.35668945 48.2578125 C-0.85648091 88.19645529 9.50220849 131.62013756 37 162 C37.79148437 162.92167969 38.58296875 163.84335938 39.3984375 164.79296875 C61.1551869 189.67253233 93.52517098 203.95291995 126 208 C131.28879299 208.23977218 136.58133204 208.24503956 141.875 208.25 C142.98814575 208.25151062 142.98814575 208.25151062 144.1237793 208.25305176 C155.08250893 208.24297613 165.3199664 207.61295694 176 205 C177.2890625 204.75636719 178.578125 204.51273438 179.90625 204.26171875 C204.9482661 199.39453331 231.49354694 187.13858741 252 172 C253.50046875 170.90558594 253.50046875 170.90558594 255.03125 169.7890625 C276.31418504 154.04184036 296.80297397 136.25759712 312.57250977 114.85400391 C314.36474609 112.52627299 316.26751711 110.30153273 318.16015625 108.0546875 C323.74566062 101.26288057 328.50729405 93.97941298 333.3125 86.625 C334.63539634 84.60908885 335.96006759 82.59438402 337.28739929 80.58139038 C338.10390909 79.34224256 338.91774957 78.10132987 339.72834778 76.85830688 C341.98733619 73.42024001 344.37943956 70.17082983 347 67 C346.44957013 71.48683744 344.58444542 74.68452226 342.125 78.375 C341.72933838 78.97932861 341.33367676 79.58365723 340.92602539 80.20629883 C336.60413588 86.73064941 331.95277882 93.01025561 327.27392578 99.28076172 C325.44473578 101.74936195 323.66280717 104.25133511 321.875 106.75 C315.5490668 115.44172936 308.62036813 123.53203833 301.34375 131.4375 C299.31386333 133.65684276 297.33504502 135.90672034 295.375 138.1875 C289.32389228 145.11109301 282.80890066 151.11068313 275.6328125 156.859375 C273.47069466 158.6172987 271.42009198 160.42331189 269.375 162.3125 C256.64279244 173.47568804 241.85572524 182.02377169 227 190 C226.2894043 190.38671875 225.57880859 190.7734375 224.84667969 191.171875 C202.71013327 203.0411063 175.13475142 210.18920157 150 211 C148.96746094 211.03996094 147.93492187 211.07992188 146.87109375 211.12109375 C112.4682419 211.79878608 78.47890309 202.37532104 52 180 C51.09636719 179.29101562 50.19273437 178.58203125 49.26171875 177.8515625 C39.44131022 170.10933171 31.92288573 161.36752547 25 151 C24.51015625 150.31808594 24.0203125 149.63617187 23.515625 148.93359375 C-5.88638535 107.28074576 -7.50816479 48.63001061 0 0 Z " fill="#FEE093" transform="translate(563,1130)"/>
<path d="M0 0 C1.86801219 3.28185651 2.57112189 6.32251463 3.21875 10.03125 C3.42798096 11.22290771 3.63721191 12.41456543 3.8527832 13.64233398 C4.93457381 20.09023038 5.99657657 26.53929926 7 33 C7.14002441 33.89315918 7.28004883 34.78631836 7.42431641 35.70654297 C11.17565915 60.92596598 10.84109687 89.00402704 6 114 C5.7831958 115.12293457 5.7831958 115.12293457 5.56201172 116.26855469 C4.5633795 121.23406815 3.33009529 126.1142261 2 131 C1.79004395 131.80034668 1.58008789 132.60069336 1.36376953 133.42529297 C-1.76371635 145.2379684 -5.85825238 155.45893216 -12 166 C-13.0245405 167.95639641 -14.04568359 169.91457797 -15.0625 171.875 C-17.89177148 177.03157543 -21.27440629 181.46616799 -25 186 C-25.64453125 186.85207031 -26.2890625 187.70414063 -26.953125 188.58203125 C-35.74071423 199.95707731 -47.11218688 209.01097186 -59 217 C-59.84949219 217.58136719 -60.69898438 218.16273438 -61.57421875 218.76171875 C-92.25517218 238.23821558 -134.12689084 242.16167814 -169.03515625 234.77734375 C-175.40098685 233.34684778 -181.70794615 231.72448883 -188 230 C-188.91040039 229.7515332 -189.82080078 229.50306641 -190.75878906 229.24707031 C-222.97978471 220.16955126 -251.77421053 200.69658681 -276 178 C-277.39033247 176.7853413 -278.78576751 175.57648499 -280.1875 174.375 C-287.01946196 168.42143315 -293.12763248 161.88806529 -299 155 C-300.23556641 153.58074219 -300.23556641 153.58074219 -301.49609375 152.1328125 C-308.4626549 144.07827455 -314.80729252 135.66020795 -321 127 C-320.505 126.01 -320.505 126.01 -320 125 C-319.34515625 125.84820313 -318.6903125 126.69640625 -318.015625 127.5703125 C-311.72513263 135.67241072 -305.23426607 143.56200172 -298.48925781 151.28979492 C-297.4569804 152.47522169 -296.43067858 153.66586841 -295.40917969 154.8605957 C-284.78266681 167.2044783 -273.08184388 179.25110997 -260 189 C-259.14921875 189.64453125 -258.2984375 190.2890625 -257.421875 190.953125 C-254.64514982 193.01537119 -251.83175621 195.01404466 -249 197 C-247.9378125 197.75925781 -246.875625 198.51851562 -245.78125 199.30078125 C-231.73919558 209.13835449 -216.24546725 217.78675315 -199.89453125 223.0625 C-197.29401956 223.90477099 -194.87186621 224.89603152 -192.375 226 C-187.43397206 228.00907913 -182.34858209 229.31766686 -177.1875 230.625 C-176.3816748 230.83125 -175.57584961 231.0375 -174.74560547 231.25 C-162.55762498 234.2393673 -150.59081996 235.41249204 -138.0625 235.375 C-136.98242172 235.37368576 -136.98242172 235.37368576 -135.88052368 235.37234497 C-98.44143246 235.22289268 -62.84432489 221.45598023 -36 195 C-8.92839986 167.4626519 6.24830727 124.88963178 6.3359375 86.71875 C6.34413513 85.59361496 6.35233276 84.46847992 6.36077881 83.30924988 C6.37972191 79.70603901 6.37986038 76.10325299 6.375 72.5 C6.37617828 70.66050278 6.37617828 70.66050278 6.37738037 68.78384399 C6.36255905 49.51282006 5.3851447 31.12938678 1.42089844 12.24072266 C1.14681152 10.92467041 1.14681152 10.92467041 0.8671875 9.58203125 C0.7007373 8.81737549 0.53428711 8.05271973 0.36279297 7.26489258 C-0.03048288 4.80969738 -0.06077931 2.48236929 0 0 Z " fill="#FEE093" transform="translate(1479,1103)"/>
<path d="M0 0 C2.08712828 3.13069242 3.0964595 5.88444357 4.3125 9.4375 C6.25236734 15.00740182 8.36717186 20.47027037 10.68212891 25.89526367 C11.91523765 28.80031071 13.12197101 31.71489094 14.32421875 34.6328125 C16.86344899 40.73053484 19.55220118 46.74956458 22.3125 52.75 C22.79033936 53.7905957 23.26817871 54.83119141 23.76049805 55.90332031 C28.22736586 65.58041213 32.93328209 75.11908772 37.859375 84.5703125 C38.42140625 85.66085937 38.9834375 86.75140625 39.5625 87.875 C40.05878906 88.82117187 40.55507812 89.76734375 41.06640625 90.7421875 C41.37449219 91.48726562 41.68257812 92.23234375 42 93 C41.67 93.66 41.34 94.32 41 95 C36.39791014 86.98895469 31.87940348 78.95437219 27.75 70.6875 C27.44578125 70.07970703 27.1415625 69.47191406 26.828125 68.84570312 C17.81911117 50.61409971 9.49918474 31.68882322 2.75 12.5 C2.4627002 11.68861572 2.17540039 10.87723145 1.87939453 10.04125977 C0.66877492 6.48808736 0 3.79109485 0 0 Z " fill="#FFDE8D" transform="translate(1092,1096)"/>
<path d="M0 0 C1.47832169 4.62912696 -0.08230727 8.09544911 -1.6875 12.5 C-1.99421631 13.35859619 -2.30093262 14.21719238 -2.61694336 15.10180664 C-9.8238391 34.80342622 -18.48781411 54.18331571 -27.875 72.9375 C-28.20306641 73.59427734 -28.53113281 74.25105469 -28.86914062 74.92773438 C-32.32391052 81.76516322 -36.12050416 88.39660283 -40 95 C-40.33 94.34 -40.66 93.68 -41 93 C-40.04075402 91.00000349 -38.97406704 89.05170458 -37.875 87.125 C-32.99128963 78.33566887 -28.84375635 69.21085223 -24.65771484 60.07666016 C-22.26912175 54.87052881 -19.86963177 49.68832453 -17.265625 44.5859375 C-15.34231259 40.78458074 -13.79535074 36.9826651 -12.4375 32.9375 C-11.11333196 29.10481485 -9.78433415 25.35884884 -8.0625 21.6875 C-4.81885121 14.69296516 -2.50802718 7.2816389 0 0 Z " fill="#FFDE8D" transform="translate(955,1096)"/>
<path d="M0 0 C0.33 0 0.66 0 1 0 C0.99363525 1.13727539 0.98727051 2.27455078 0.98071289 3.44628906 C0.45856446 33.0540718 0.45856446 33.0540718 9 61 C9.99131126 63.30732 10.97202389 65.61925077 11.9375 67.9375 C12.33839844 68.81277344 12.73929688 69.68804688 13.15234375 70.58984375 C14.0730381 73.20767054 14.16260063 75.24564392 14 78 C11.73589139 75.73589139 11.08729816 74.02980868 9.94140625 71.0546875 C9.55533203 70.05953125 9.16925781 69.064375 8.77148438 68.0390625 C8.37251953 66.99492188 7.97355469 65.95078125 7.5625 64.875 C7.16740234 63.8540625 6.77230469 62.833125 6.36523438 61.78125 C5.23575661 58.85701138 4.11323092 55.93046247 3 53 C2.60700462 52.12628754 2.60700462 52.12628754 2.20606995 51.23492432 C-0.21802222 45.56284734 -0.39337621 40.49022262 -0.29296875 34.375 C-0.28872391 33.38749756 -0.28447906 32.39999512 -0.28010559 31.38256836 C-0.26342646 28.25475823 -0.22579435 25.1276126 -0.1875 22 C-0.17243925 19.86849894 -0.15875329 17.7369877 -0.14648438 15.60546875 C-0.1135584 10.40342236 -0.06346767 5.20175867 0 0 Z " fill="#FFDB89" transform="translate(1146,1018)"/>
<path d="M0 0 C0.33 0 0.66 0 1 0 C3.03883771 47.77153594 3.03883771 47.77153594 -7.81494141 68.70996094 C-9.38422239 71.74248167 -10.69284077 74.84718406 -12 78 C-12.33 78 -12.66 78 -13 78 C-12.44800686 71.19208462 -10.02398899 65.26649282 -7.5625 58.9375 C-6.75040872 56.8219573 -5.93918356 54.70608188 -5.12890625 52.58984375 C-4.76869385 51.66034912 -4.40848145 50.73085449 -4.03735352 49.77319336 C-3.69502686 48.85803955 -3.3527002 47.94288574 -3 47 C-2.63463135 46.0917749 -2.2692627 45.1835498 -1.89282227 44.24780273 C-0.7104407 39.94667559 -0.64519677 35.88727798 -0.5859375 31.4453125 C-0.56657135 30.54376434 -0.5472052 29.64221619 -0.5272522 28.71334839 C-0.46775704 25.85066004 -0.42119183 22.98793082 -0.375 20.125 C-0.33679253 18.17706637 -0.2977392 16.22914914 -0.2578125 14.28125 C-0.16208035 9.52096742 -0.07793884 4.7606058 0 0 Z " fill="#FFDB89" transform="translate(901,1018)"/>
<path d="M0 0 C5.10495339 1.52953756 8.37997454 4.69632401 12.25 8.1875 C13.59615181 9.37930561 14.94379846 10.56942501 16.29296875 11.7578125 C16.93669434 12.32532227 17.58041992 12.89283203 18.24365234 13.47753906 C20.29234129 15.25341122 22.40103411 16.92613599 24.5625 18.5625 C28.61091024 21.64331697 32.49974786 24.89346154 36.375 28.1875 C37.2868103 28.95525757 37.2868103 28.95525757 38.21704102 29.73852539 C41.19836416 32.28911558 43.81147985 34.70147503 46 38 C41.97555915 36.32966169 38.97510194 33.53472773 35.75 30.6875 C30.51399868 26.13061327 25.2101555 21.67678135 19.8125 17.3125 C19.14371826 16.77093262 18.47493652 16.22936523 17.78588867 15.67138672 C15.27360977 13.63923771 12.75907137 11.60995302 10.24023438 9.5859375 C8.67876367 8.33088936 7.12051857 7.07183107 5.5625 5.8125 C4.69753906 5.11769531 3.83257813 4.42289063 2.94140625 3.70703125 C1 2 1 2 0 0 Z " fill="#FFDE93" transform="translate(1161,632)"/>
<path d="M0 0 C0.66 0.33 1.32 0.66 2 1 C-12.90831371 14.06196129 -12.90831371 14.06196129 -19.83203125 19.3359375 C-27.88362233 25.51607768 -35.52403085 32.14027125 -43 39 C-43.66 38.67 -44.32 38.34 -45 38 C-39.08045439 31.77514831 -32.70229921 26.3600006 -26 21 C-19.34041409 15.59693973 -12.74522091 10.12781327 -6.23876953 4.54150391 C-2.21572636 1.10786318 -2.21572636 1.10786318 0 0 Z " fill="#FFDF94" transform="translate(885,632)"/>
<path d="M0 0 C2.84023136 3.46187732 5.41637895 7.00695858 7.890625 10.73828125 C8.59960938 11.80498047 9.30859375 12.87167969 10.0390625 13.97070312 C10.7760928 15.08460159 11.51307133 16.1985343 12.25 17.3125 C13.00238922 18.44610624 13.75499142 19.57957114 14.5078125 20.71289062 C16.34063893 23.47387915 18.17128993 26.23628406 20 29 C19.67 29.66 19.34 30.32 19 31 C14.09771302 24.67222532 9.38141322 18.26285413 5 11.5625 C4.61465088 10.98419434 4.22930176 10.40588867 3.83227539 9.81005859 C1.74590534 6.56919594 0.45944322 3.84065818 0 0 Z " fill="#FFDF92" transform="translate(1138,1197)"/>
<path d="M0 0 C4.908709 2.59202622 8.67583988 6.16708423 12.6875 9.9375 C13.36361328 10.55818359 14.03972656 11.17886719 14.73632812 11.81835938 C15.70795898 12.72618164 15.70795898 12.72618164 16.69921875 13.65234375 C17.28533936 14.19882568 17.87145996 14.74530762 18.4753418 15.30834961 C20.08662864 17.09611687 21.02857456 18.80824188 22 21 C16.92545469 16.73276871 12.02641228 12.30320543 7.17675781 7.78393555 C4.86059244 5.63949107 2.63390021 3.75593347 0 2 C0 1.34 0 0.68 0 0 Z " fill="#FFDE92" transform="translate(1207,670)"/>
<path d="M0 0 C0.66 0.33 1.32 0.66 2 1 C-4.64345996 7.78186537 -11.3467184 14.35718311 -19 20 C-15.47222991 11.77472553 -6.69267574 5.67145001 0 0 Z " fill="#FFDF94" transform="translate(838,671)"/>
<path d="M0 0 C0.67095703 0.58007812 0.67095703 0.58007812 1.35546875 1.171875 C1.96003906 1.69265625 2.56460937 2.2134375 3.1875 2.75 C3.83074219 3.30429687 4.47398438 3.85859375 5.13671875 4.4296875 C6.55377264 5.62393417 8.017458 6.7630935 9.5 7.875 C13.06434043 10.90468937 15.99176548 14.42826334 19 18 C16 18 16 18 14.19067383 16.56298828 C13.53607178 15.90540527 12.88146973 15.24782227 12.20703125 14.5703125 C11.49482422 13.85746094 10.78261719 13.14460937 10.04882812 12.41015625 C9.31083984 11.65605469 8.57285156 10.90195312 7.8125 10.125 C7.06291016 9.37863281 6.31332031 8.63226562 5.54101562 7.86328125 C0 2.26680505 0 2.26680505 0 0 Z " fill="#FFDC86" transform="translate(1232,693)"/>
<path d="M0 0 C0 3.99282941 -1.47808076 5.15331592 -4 8.1875 C-4.7425 9.08855469 -5.485 9.98960937 -6.25 10.91796875 C-6.8275 11.60503906 -7.405 12.29210937 -8 13 C-8.33 12.34 -8.66 11.68 -9 11 C-8.06558465 9.72689688 -7.12732889 8.456612 -6.1875 7.1875 C-5.66542969 6.47980469 -5.14335938 5.77210938 -4.60546875 5.04296875 C-3.16871123 3.21468607 -1.68184237 1.60103312 0 0 Z " fill="#FFE38F" transform="translate(736,780)"/>
<path d="M0 0 C7.91607732 6.31117397 7.91607732 6.31117397 10 11 C9.67 11.66 9.34 12.32 9 13 C7.4941255 11.21326795 5.9954515 9.42046492 4.5 7.625 C3.6646875 6.62726562 2.829375 5.62953125 1.96875 4.6015625 C0 2 0 2 0 0 Z " fill="#FFE38F" transform="translate(1311,780)"/>
<path d="M0 0 C0.33 0.99 0.66 1.98 1 3 C-0.65 4.65 -2.3 6.3 -4 8 C-4.99 7.67 -5.98 7.34 -7 7 C-4.69 4.69 -2.38 2.38 0 0 Z " fill="#FFD991" transform="translate(855,1268)"/>
<path d="M0 0 C3.93846154 3.32307692 3.93846154 3.32307692 4.25 6.75 C4.1675 7.4925 4.085 8.235 4 9 C1.49701566 6.06171403 0.53069061 3.82097239 0 0 Z " fill="#FFE19B" transform="translate(575,1255)"/>
<path d="M0 0 C0.99 0.99 1.98 1.98 3 3 C2.01 4.485 2.01 4.485 1 6 C0.34 6 -0.32 6 -1 6 C-0.67 4.02 -0.34 2.04 0 0 Z " fill="#FFE7A0" transform="translate(972,1091)"/>
<path d="M0 0 C2 2 2 2 2 6 C0.68 5.34 -0.64 4.68 -2 4 C-1.34 2.68 -0.68 1.36 0 0 Z " fill="#FFE7A0" transform="translate(1075,1091)"/>
</svg>
